<?xml version="1.0" encoding="UTF-8" standalone="no"?>
<!-- Created with Inkscape (http://www.inkscape.org/) -->

<svg
   width="61.699902mm"
   height="85.873886mm"
   viewBox="0 0 61.699902 85.873886"
   version="1.1"
   id="svg1"
   inkscape:version="1.3.2 (091e20e, 2023-11-25)"
   sodipodi:docname="F1_3.svg"
   xmlns:inkscape="http://www.inkscape.org/namespaces/inkscape"
   xmlns:sodipodi="http://sodipodi.sourceforge.net/DTD/sodipodi-0.dtd"
   xmlns="http://www.w3.org/2000/svg"
   xmlns:svg="http://www.w3.org/2000/svg">
  <sodipodi:namedview
     id="namedview1"
     pagecolor="#ffffff"
     bordercolor="#000000"
     borderopacity="0.25"
     inkscape:showpageshadow="2"
     inkscape:pageopacity="0.0"
     inkscape:pagecheckerboard="0"
     inkscape:deskcolor="#d1d1d1"
     inkscape:document-units="mm"
     inkscape:zoom="1.1930048"
     inkscape:cx="94.299703"
     inkscape:cy="165.54837"
     inkscape:window-width="1440"
     inkscape:window-height="900"
     inkscape:window-x="0"
     inkscape:window-y="0"
     inkscape:window-maximized="0"
     inkscape:current-layer="layer1" />
  <defs
     id="defs1" />
  <g
     inkscape:label="Lag 1"
     inkscape:groupmode="layer"
     id="layer1"
     transform="translate(-43.300099,-81.782834)">
    <rect
       style="fill:#dfa6a6;stroke-width:0.4;stroke-miterlimit:35.2"
       id="rect1"
       width="51.725899"
       height="70.901558"
       x="53.274101"
       y="96.755165" />
    <rect
       style="fill:none;stroke:#000000;stroke-width:0.38;stroke-miterlimit:35.2;stroke-dasharray:0.38, 0.76;stroke-dashoffset:0;stroke-opacity:1"
       id="rect1-2"
       width="49.139603"
       height="67.356483"
       x="54.567249"
       y="98.527702" />
    <path
       style="fill:none;fill-opacity:1;stroke:#000000;stroke-width:0.4;stroke-miterlimit:35.2;stroke-dasharray:none;stroke-dashoffset:0;stroke-opacity:1"
       d="m 53.2741,96.755163 c -2.005883,-5.579919 -0.334828,-1.685499 -1.989585,-4.62729 -0.536107,-0.557779 -0.565391,-1.355508 -0.921279,-1.996104 -0.657638,-1.183751 -0.223076,-0.09734 -0.921277,-1.074825 -0.419364,-0.58711 -0.885153,-1.652886 -1.381918,-2.149652 -0.114382,-0.114379 -0.527429,-0.220334 -0.614186,-0.307091 -0.03619,-0.03619 0.03619,-0.117356 0,-0.153548 -0.07238,-0.07238 -0.221922,0.05678 -0.307094,0 -0.120451,-0.0803 -0.182959,-0.232611 -0.307094,-0.307092 -0.807762,-0.484658 -1.7658,-0.690975 -2.456743,-1.381918 -0.102362,-0.102365 -0.24235,-0.177613 -0.307091,-0.307094 -0.143312,-0.286621 0.143309,-0.788205 0,-1.074825 -0.104347,-0.208693 -0.356294,-0.40549 -0.46064,-0.614185 -0.0715,-0.143008 -0.100753,-0.307094 -0.307094,-0.307094"
       id="path12" />
    <path
       style="fill:none;fill-opacity:1;stroke:#000000;stroke-width:0.4;stroke-miterlimit:35.2;stroke-dasharray:none;stroke-dashoffset:0;stroke-opacity:1"
       d="m 53.2741,96.755163 c 0.41163,-0.979427 0.909825,-1.926823 1.234892,-2.93828 0.141809,-0.441245 0.06602,-0.926782 0.153546,-1.381919 0.218067,-1.133943 0.624506,-2.232215 0.76773,-3.37802 0.167815,-1.342498 0.364247,-2.659197 0.614188,-3.992207 0.123336,-0.657792 0.124691,-2.581434 0.614186,-3.070932 0.0713,-0.0713 -0.07084,0.202957 -0.153546,0.260639"
       id="path13" />
    <path
       style="fill:none;fill-opacity:1;stroke:#000000;stroke-width:0.4;stroke-miterlimit:35.2;stroke-dasharray:none;stroke-dashoffset:0;stroke-opacity:1"
       d="m 54.508992,93.816881 c 0.818914,2e-6 1.719268,0.356026 2.456744,2e-6 0.553889,-0.267396 2.210659,-2.482416 2.91738,-3.224474 0.698865,-0.733809 1.433102,-1.433103 2.149652,-2.149652 0.191469,-0.191469 0.422714,-0.576263 0.614185,-0.767731 0.335066,-0.335069 0.46064,-0.06569 0.46064,-0.614186"
       id="path14" />
    <path
       style="fill:none;fill-opacity:1;stroke:#000000;stroke-width:0.4;stroke-miterlimit:35.2;stroke-dasharray:none;stroke-dashoffset:0;stroke-opacity:1"
       d="m 51.284515,92.127871 c 0.409456,-2.815016 0.818914,-5.630035 1.228373,-8.445053 0,-0.20473 -0.140158,-0.464955 0,-0.614185 0.131633,-0.140158 0.384556,0 0.576834,0"
       id="path15" />
    <path
       style="fill:none;fill-opacity:1;stroke:#000000;stroke-width:0.4;stroke-miterlimit:35.2;stroke-dasharray:none;stroke-dashoffset:0;stroke-opacity:1"
       d="m 56.965736,93.816881 c 2.297832,0.12883 3.454691,-0.559301 5.374124,-1.381917 0.469217,-0.201093 1.290163,-0.474712 1.689012,-0.76773 1.007933,-0.740495 1.94492,-1.572996 2.917381,-2.359491"
       id="path16" />
  </g>
</svg>
