<?xml version="1.0" encoding="UTF-8" standalone="no"?>
<!-- Created with Inkscape (http://www.inkscape.org/) -->

<svg
   width="210mm"
   height="297mm"
   viewBox="0 0 210 297"
   version="1.1"
   id="svg1"
   inkscape:version="1.3.2 (091e20e, 2023-11-25)"
   sodipodi:docname="tegning.svg"
   xmlns:inkscape="http://www.inkscape.org/namespaces/inkscape"
   xmlns:sodipodi="http://sodipodi.sourceforge.net/DTD/sodipodi-0.dtd"
   xmlns="http://www.w3.org/2000/svg"
   xmlns:svg="http://www.w3.org/2000/svg">
  <sodipodi:namedview
     id="namedview1"
     pagecolor="#ffffff"
     bordercolor="#000000"
     borderopacity="0.25"
     inkscape:showpageshadow="2"
     inkscape:pageopacity="0.0"
     inkscape:pagecheckerboard="0"
     inkscape:deskcolor="#d1d1d1"
     inkscape:document-units="mm"
     inkscape:zoom="0.62657574"
     inkscape:cx="410.1659"
     inkscape:cy="604.07701"
     inkscape:window-width="1440"
     inkscape:window-height="900"
     inkscape:window-x="0"
     inkscape:window-y="0"
     inkscape:window-maximized="0"
     inkscape:current-layer="layer1" />
  <defs
     id="defs1" />
  <g
     inkscape:label="Lag 1"
     inkscape:groupmode="layer"
     id="layer1">
    <path
       d="m 107.63684,171.47635 a 66.809067,22.26969 0 0 0 -66.808841,22.26996 66.809067,22.26969 0 0 0 66.808841,22.26945 66.809067,22.26969 0 0 0 66.80884,-22.26945 66.809067,22.26969 0 0 0 -66.80884,-22.26996 z"
       style="fill:#ffddbf;stroke:#000000;stroke-width:0.5"
       id="path9" />
    <path
       d="m 107.63684,178.17 a 43.316681,15.57599 0 0 0 -43.316735,15.57631 43.316681,15.57599 0 0 0 43.316735,15.5758 43.316681,15.57599 0 0 0 43.31674,-15.5758 A 43.316681,15.57599 0 0 0 107.63684,178.17 Z m 0,2.08566 a 39.72112,13.240374 0 0 1 39.72109,13.24054 39.72112,13.240374 0 0 1 -39.72109,13.24002 39.72112,13.240374 0 0 1 -39.721089,-13.24002 39.72112,13.240374 0 0 1 39.721089,-13.24054 z"
       style="fill:#e4e4e4;stroke:#000000;stroke-width:0.336706;fill-opacity:1;stroke-opacity:0.3449198"
       id="path15" />
    <path
       d="m 174.44568,193.74631 c -4e-4,12.29909 -29.91158,22.26941 -66.80884,22.26945 -36.897259,-4e-5 -66.808443,-9.97036 -66.808841,-22.26945 l -2.6e-4,3.23329 c -1.22e-4,7.95618 12.733468,15.30803 33.404162,19.28616 20.670871,3.97814 46.138489,3.97814 66.809359,0 20.67069,-3.97813 33.40428,-11.32998 33.40416,-19.28616 z"
       style="fill:#ffddbf;fill-opacity:1;stroke:#000000;stroke-width:0.5"
       id="path8"
       sodipodi:nodetypes="ccccsscc" />
    <ellipse
       style="fill:#000000;fill-opacity:1;stroke:#000000;stroke-width:0.328344;stroke-dasharray:none"
       id="path10"
       cx="107.63684"
       cy="193.74605"
       rx="1.5350362"
       ry="1.6250317" />
    <ellipse
       style="fill:#000000;fill-opacity:1;stroke:#000000;stroke-width:0.328344;stroke-dasharray:none"
       id="path10-7"
       cx="107.88684"
       cy="89.726166"
       rx="1.5350362"
       ry="1.6250317" />
    <ellipse
       style="fill:#000000;fill-opacity:1;stroke:#000000;stroke-width:0.0840036;stroke-dasharray:none"
       id="path10-7-2"
       cx="95.672035"
       cy="207.45099"
       rx="0.39272454"
       ry="0.41574904" />
    <path
       style="fill:#000000;fill-opacity:1;stroke:#000000;stroke-width:0.5;stroke-dasharray:0.5,1;stroke-dashoffset:0"
       d="M 107.63684,193.74605 V 89.726168"
       id="path11" />
    <path
       style="fill:#000000;fill-opacity:1;stroke:#000000;stroke-width:0.499999;stroke-dasharray:none;stroke-dashoffset:0"
       d="m 107.63684,193.74605 66.80884,2.6e-4"
       id="path12" />
    <path
       style="fill:#000000;fill-opacity:1;stroke:#000000;stroke-width:0.499999;stroke-dasharray:none;stroke-dashoffset:0"
       d="m 114.17568,193.74605 v -6.02779"
       id="path13" />
    <path
       style="fill:#000000;fill-opacity:1;stroke:#000000;stroke-width:0.499999;stroke-dasharray:none;stroke-dashoffset:0"
       d="m 114.17568,187.71826 h -6.53884"
       id="path14" />
    <text
       xml:space="preserve"
       style="font-size:4.91475px;fill:#000000;fill-opacity:1;stroke:none;stroke-width:0.773971;stroke-dasharray:none;stroke-dashoffset:0;stroke-opacity:0.34492"
       x="-174.36011"
       y="75.087463"
       id="text15"
       transform="matrix(0,-1.114052,0.89762418,0,0,0)"><tspan
         sodipodi:role="line"
         id="tspan15"
         style="fill:#000000;fill-opacity:1;stroke:none;stroke-width:0.773978"
         x="-174.36011"
         y="75.087463">}</tspan></text>
    <path
       style="fill:none;fill-opacity:1;stroke:#000000;stroke-width:0.5;stroke-dasharray:none;stroke-dashoffset:0;stroke-opacity:1"
       d="M 107.63684,193.74605 95.672033,207.45099"
       id="path16" />
    <text
       xml:space="preserve"
       style="font-size:10.8824px;fill:#000000;fill-opacity:1;stroke:none;stroke-width:1.71376;stroke-dasharray:none;stroke-dashoffset:0;stroke-opacity:1"
       x="94.856003"
       y="133.18588"
       id="text16"
       transform="scale(0.99822735,1.0017758)"><tspan
         sodipodi:role="line"
         id="tspan16"
         style="fill:#000000;fill-opacity:1;stroke:none;stroke-width:1.71376"
         x="94.856003"
         y="133.18588">$x$</tspan></text>
    <text
       xml:space="preserve"
       style="font-size:10.8824px;fill:#000000;fill-opacity:1;stroke:none;stroke-width:1.71376;stroke-dasharray:none;stroke-dashoffset:0;stroke-opacity:1"
       x="153.01688"
       y="191.48439"
       id="text16-1"
       transform="scale(0.99822735,1.0017758)"><tspan
         sodipodi:role="line"
         id="tspan16-1"
         style="fill:#000000;fill-opacity:1;stroke:none;stroke-width:1.71376"
         x="153.01688"
         y="191.48439">$a$</tspan></text>
    <text
       xml:space="preserve"
       style="font-size:10.8824px;fill:#000000;fill-opacity:1;stroke:none;stroke-width:1.71376;stroke-dasharray:none;stroke-dashoffset:0;stroke-opacity:1"
       x="104.40803"
       y="203.47098"
       id="text16-1-0"
       transform="scale(0.99822735,1.0017758)"><tspan
         sodipodi:role="line"
         id="tspan16-1-6"
         style="fill:#000000;fill-opacity:1;stroke:none;stroke-width:1.71376"
         x="104.40803"
         y="203.47098">$r$</tspan></text>
    <text
       xml:space="preserve"
       style="font-size:10.8824px;fill:#000000;fill-opacity:1;stroke:none;stroke-width:1.71376;stroke-dasharray:none;stroke-dashoffset:0;stroke-opacity:1"
       x="59.090904"
       y="182.44681"
       id="text16-1-0-4"
       transform="scale(0.99822735,1.0017758)"><tspan
         sodipodi:role="line"
         id="tspan16-1-6-1"
         style="fill:#000000;fill-opacity:1;stroke:none;stroke-width:1.71376"
         x="59.090904"
         y="182.44681">$\mathrm{d}r$</tspan></text>
    <text
       xml:space="preserve"
       style="font-size:10.8824px;fill:#000000;fill-opacity:1;stroke:none;stroke-width:1.71376;stroke-dasharray:none;stroke-dashoffset:0;stroke-opacity:1"
       x="44.252144"
       y="208.14165"
       id="text16-1-0-4-9"
       transform="scale(0.99822735,1.0017758)"><tspan
         sodipodi:role="line"
         id="tspan16-1-6-1-3"
         style="fill:#000000;fill-opacity:1;stroke:none;stroke-width:1.71376"
         x="44.252144"
         y="208.14165">$M$</tspan></text>
    <text
       xml:space="preserve"
       style="font-size:10.8824px;fill:#000000;fill-opacity:1;stroke:none;stroke-width:1.71376;stroke-dasharray:none;stroke-dashoffset:0;stroke-opacity:1"
       x="112.61195"
       y="91.009132"
       id="text16-1-0-4-9-5"
       transform="scale(0.99822735,1.0017758)"><tspan
         sodipodi:role="line"
         id="tspan16-1-6-1-3-6"
         style="fill:#000000;fill-opacity:1;stroke:none;stroke-width:1.71376"
         x="112.61195"
         y="91.009132">$m$</tspan></text>
    <text
       xml:space="preserve"
       style="font-size:3.175px;fill:#000000;fill-opacity:1;stroke:none;stroke-width:0.499999;stroke-dasharray:none;stroke-dashoffset:0;stroke-opacity:1"
       x="73.644073"
       y="179.537"
       id="text17"><tspan
         sodipodi:role="line"
         id="tspan17"
         style="stroke-width:0.5"
         x="73.644073"
         y="179.537" /></text>
  </g>
</svg>
